<?xml version="1.0" encoding="iso-8859-1"?>
<!-- Generator: Adobe Illustrator 19.0.0, SVG Export Plug-In . SVG Version: 6.00 Build 0)  -->
<svg version="1.1" id="Capa_1" xmlns="http://www.w3.org/2000/svg" xmlns:xlink="http://www.w3.org/1999/xlink" x="0px" y="0px"
	 viewBox="0 0 512 512" style="enable-background:new 0 0 512 512;" xml:space="preserve">
<path style="fill:#898989;" d="M504.825,353.71h-14.231h-2.558H298.401h-2.548h-13.634c-3.726,0-6.732,3.016-6.732,6.732v15.709
	c0,3.716,3.006,6.732,6.732,6.732h13.634h2.548h189.635h2.558h14.231c3.963,0,7.175-3.212,7.175-7.185v-14.803
	C512,356.922,508.788,353.71,504.825,353.71z"/>
<path style="fill:#666666;" d="M504.825,368.297h-14.231h-2.558H298.401h-2.548h-13.634c-3.726,0-6.732-3.016-6.732-6.732v14.587
	c0,3.716,3.006,6.732,6.732,6.732h13.634h2.548h189.635h2.558h14.231c3.963,0,7.175-3.212,7.175-7.185v-14.587
	C512,365.085,508.788,368.297,504.825,368.297z"/>
<path style="fill:#898989;" d="M275.363,111.133v102.83c0,3.293-1.587,6.383-4.263,8.302l-22.296,15.988l-18.714,13.382
	l-18.704-29.657l21.02-9.975l12.075-8.657v-92.213c0-16.493-13.37-29.863-29.863-29.863H61.259
	c-16.493,0-29.863,13.37-29.863,29.863v92.213l12.075,8.657l20.536,9.265l-19.445,26.25l-17.489-9.265L4.777,222.266
	c-2.675-1.919-4.263-5.009-4.263-8.302v-102.83c0-33.548,27.197-60.745,60.745-60.745h153.359
	C248.166,50.389,275.363,77.585,275.363,111.133z"/>
<path style="fill:#666666;" d="M206.438,61.123H69.44c-29.97,0-54.265,24.295-54.265,54.265v91.861c0,2.941,1.417,5.702,3.808,7.417
	L38.9,228.948l13.947,7.388l11.161-15.067l-20.536-9.265l-12.075-8.657v-92.213c0-16.493,13.37-29.863,29.863-29.863h153.359
	c16.493,0,29.863,13.37,29.863,29.863v92.213l-12.075,8.657l-21.02,9.975l10.983,17.414l14.608-10.446l19.917-14.282
	c2.39-1.714,3.808-4.475,3.808-7.417v-91.861C260.702,85.418,236.408,61.123,206.438,61.123z"/>
<path style="fill:#128CA0;" d="M137.939,173.916c70.493,0,127.645,57.152,127.645,127.645s-57.152,127.645-127.645,127.645
	S10.294,372.054,10.294,301.561S67.446,173.916,137.939,173.916z"/>
<path style="fill:#089992;" d="M111.499,257.297c0-31.83,11.655-60.937,30.926-83.294c-1.49-0.051-2.983-0.086-4.485-0.086
	c-70.493,0-127.645,57.152-127.645,127.645S67.447,429.206,137.94,429.206c38.663,0,73.31-17.195,96.719-44.35
	C166.243,382.491,111.499,326.288,111.499,257.297z"/>
<circle style="fill:#DBDDDD;" cx="137.939" cy="301.561" r="80.293"/>
<path style="fill:#BFC1C1;" d="M122.476,245.533c44.346,0,80.293,35.946,80.293,80.293c0,10.716-2.115,20.933-5.925,30.279
	c13.268-14.322,21.388-33.48,21.388-54.543c0-44.346-35.946-80.293-80.293-80.293c-33.63,0-62.413,20.682-74.368,50.014
	C78.236,255.451,99.193,245.533,122.476,245.533z"/>
<path style="fill:#8E5F39;" d="M511.609,435.588v19.641c0,3.521-2.862,6.382-6.382,6.382H6.382c-3.521,0-6.382-2.862-6.382-6.382
	v-19.641c0-3.521,2.862-6.382,6.382-6.382h498.844C508.747,429.206,511.609,432.068,511.609,435.588z"/>
<path style="fill:#7C4825;" d="M505.227,445.409H6.382c-3.521,0-6.382-2.862-6.382-6.382v16.203c0,3.521,2.862,6.382,6.382,6.382
	h498.844c3.521,0,6.382-2.862,6.382-6.382v-16.203C511.609,442.547,508.747,445.409,505.227,445.409z"/>
<g>
	<path style="fill:#128CA0;" d="M356.757,322.159v92.275c0,7.916-6.423,14.339-14.35,14.339H312.75
		c-7.926,0-14.35-6.423-14.35-14.339v-92.275c0-7.916,6.423-14.339,14.35-14.339h29.657
		C350.334,307.82,356.757,314.243,356.757,322.159z"/>
	<path style="fill:#128CA0;" d="M488.036,322.159v92.275c0,7.916-6.413,14.339-14.339,14.339h-29.667
		c-7.916,0-14.339-6.423-14.339-14.339v-92.275c0-7.916,6.423-14.339,14.339-14.339h29.667
		C481.623,307.82,488.036,314.243,488.036,322.159z"/>
</g>
<g>
	<path style="fill:#089992;" d="M328.263,414.434v-92.275c0-7.881,6.369-14.279,14.247-14.334c-0.035,0-0.068-0.005-0.103-0.005
		H312.75c-7.926,0-14.35,6.423-14.35,14.339v92.275c0,7.916,6.423,14.339,14.35,14.339h29.657c0.035,0,0.068-0.005,0.103-0.005
		C334.632,428.713,328.263,422.315,328.263,414.434z"/>
	<path style="fill:#089992;" d="M459.552,414.434v-92.275c0-7.883,6.371-14.282,14.242-14.334c-0.033,0-0.065-0.005-0.098-0.005
		h-29.667c-7.916,0-14.339,6.423-14.339,14.339v92.275c0,7.916,6.423,14.339,14.339,14.339h29.667c0.033,0,0.065-0.005,0.098-0.005
		C465.923,428.715,459.552,422.317,459.552,414.434z"/>
</g>
<g>
</g>
<g>
</g>
<g>
</g>
<g>
</g>
<g>
</g>
<g>
</g>
<g>
</g>
<g>
</g>
<g>
</g>
<g>
</g>
<g>
</g>
<g>
</g>
<g>
</g>
<g>
</g>
<g>
</g>
</svg>
